<svg width="25px" height="26px" viewBox="0 0 25 26" version="1.1" xmlns="http://www.w3.org/2000/svg" xmlns:xlink="http://www.w3.org/1999/xlink">
    <!-- Generator: Sketch 46.2 (44496) - http://www.bohemiancoding.com/sketch -->
    <desc>Created with Sketch.</desc>
    <defs></defs>
    <g id="Page-1" stroke="none" stroke-width="1" fill="none" fill-rule="evenodd">
        <g id="2" transform="translate(-509.000000, -289.000000)" fill-rule="nonzero" fill="#ffbf2a">
            <g id="ic_wb_sunny_black_24px" transform="translate(509.000000, 289.000000)">
                <path d="M6.54545455,5.47130435 L4.5,3.44782609 L2.89772727,5.04173913 L4.93181818,7.06521739 L6.54545455,5.47130435 Z M3.40909091,11.8695652 L0,11.8695652 L0,14.1304348 L3.40909091,14.1304348 L3.40909091,11.8695652 Z M13.6363636,0.62173913 L11.3636364,0.62173913 L11.3636364,3.95652174 L13.6363636,3.95652174 L13.6363636,0.62173913 L13.6363636,0.62173913 Z M22.1022727,5.04173913 L20.5,3.44782609 L18.4659091,5.47130435 L20.0681818,7.06521739 L22.1022727,5.04173913 Z M18.4545455,20.5286957 L20.4886364,22.5634783 L22.0909091,20.9695652 L20.0454545,18.946087 L18.4545455,20.5286957 Z M21.5909091,11.8695652 L21.5909091,14.1304348 L25,14.1304348 L25,11.8695652 L21.5909091,11.8695652 Z M12.5,6.2173913 C8.73863636,6.2173913 5.68181818,9.25826087 5.68181818,13 C5.68181818,16.7417391 8.73863636,19.7826087 12.5,19.7826087 C16.2613636,19.7826087 19.3181818,16.7417391 19.3181818,13 C19.3181818,9.25826087 16.2613636,6.2173913 12.5,6.2173913 Z M11.3636364,25.3782609 L13.6363636,25.3782609 L13.6363636,22.0434783 L11.3636364,22.0434783 L11.3636364,25.3782609 Z M2.89772727,20.9582609 L4.5,22.5521739 L6.53409091,20.5173913 L4.93181818,18.9234783 L2.89772727,20.9582609 Z" id="Shape"></path>
            </g>
        </g>
    </g>
</svg>