<svg width="29px" height="29px" viewBox="0 0 29 29" version="1.1" xmlns="http://www.w3.org/2000/svg" xmlns:xlink="http://www.w3.org/1999/xlink">
    <!-- Generator: Sketch 46.2 (44496) - http://www.bohemiancoding.com/sketch -->
    <desc>Created with Sketch.</desc>
    <defs></defs>
    <g id="Page-1" stroke="none" stroke-width="1" fill="none" fill-rule="evenodd">
        <g id="9" transform="translate(-352.000000, -166.000000)" fill-rule="nonzero" fill="#FFFFFF">
            <g id="Group-7" transform="translate(91.000000, 151.000000)">
                <g id="Group-5" transform="translate(246.000000, 0.000000)">
                    <g id="google-plus-logo" transform="translate(15.340000, 15.340000)">
                        <path d="M1.51273348,7.23846472 C1.51273348,9.6147991 2.30632989,11.3302274 3.87124854,12.3382921 C5.15201258,13.1637088 6.63992629,13.286853 7.41252135,13.286853 C7.60026067,13.286853 7.75045213,13.2798526 7.85577708,13.2728521 C7.85577708,13.2728521 7.61044315,14.8689546 8.79415551,16.4488288 L8.74069753,16.4481924 C6.68956584,16.4488288 0,16.877129 0,22.3766184 C0,27.9722049 6.14416719,28.2563596 7.37656449,28.2563596 C7.47297978,28.2563596 7.52930157,28.2544503 7.52930157,28.2544503 C7.54298427,28.2544503 7.63112629,28.2579506 7.78099955,28.2579506 C8.57205034,28.2579506 10.616818,28.1586715 12.5155308,27.2355667 C14.9784162,26.0394445 16.2283146,23.960311 16.2283146,21.0544881 C16.2283146,18.2463533 14.3248288,16.5751551 12.9349213,15.3535766 C12.0865942,14.6096198 11.3537744,13.9668512 11.3537744,13.341902 C11.3537744,12.7051793 11.8889906,12.2266031 12.5658067,11.6204279 C13.6620135,10.6400467 14.694898,9.24472989 14.694898,6.60715146 C14.694898,4.28841169 14.3941969,2.73208449 12.5419416,1.74470292 C12.7350903,1.64574202 13.4176342,1.57382831 13.7555649,1.52705258 C14.7598112,1.38990742 16.2283146,1.23430652 16.2283146,0.414617528 L16.2283146,0.256152809 L8.91157213,0.256152809 C8.83806742,0.258062022 1.51273348,0.529488539 1.51273348,7.23846472 Z M13.3234463,21.5779308 C13.4631371,23.8158472 11.5491506,25.4669987 8.67546607,25.6760575 C5.75627865,25.889253 3.35289708,24.5750778 3.21320629,22.3403434 C3.14542921,21.266729 3.61764135,20.2134796 4.54201888,19.3759712 C5.4797609,18.5266894 6.76688899,18.0032467 8.16729708,17.899831 C8.33276225,17.8893303 8.4966364,17.8826481 8.66019236,17.8826481 C11.3614112,17.8826481 13.1910742,19.4701591 13.3234463,21.5779308 Z M11.41296,5.70727551 C12.1308243,8.23189213 11.0470274,10.8713798 9.31982562,11.3582292 C9.12158562,11.4139146 8.91570876,11.4425528 8.7082409,11.4425528 C7.12582112,11.4425528 5.55803865,9.8416773 4.97731955,7.63685393 C4.65275326,6.39777438 4.67884584,5.31525034 5.05114247,4.27409258 C5.41707506,3.24979955 6.0741627,2.55802787 6.90117034,2.32542202 C7.10004674,2.26910022 7.3062418,2.24046202 7.51339146,2.24046202 C9.42419596,2.24014382 10.6524566,3.03246742 11.41296,5.70727551 Z M23.7407515,11.2054921 L23.7407515,6.43245843 L20.7178301,6.43245843 L20.7178301,11.2054921 L15.9447964,11.2054921 L15.9447964,14.2284135 L20.7178301,14.2284135 L20.7178301,19.0014472 L23.7407515,19.0014472 L23.7407515,14.2284135 L28.5137852,14.2284135 L28.5137852,11.2054921 L23.7407515,11.2054921 Z" id="Shape"></path>
                    </g>
                </g>
            </g>
        </g>
    </g>
</svg>