<svg width="28px" height="15px" viewBox="0 0 28 15" version="1.1" xmlns="http://www.w3.org/2000/svg" xmlns:xlink="http://www.w3.org/1999/xlink">
    <!-- Generator: Sketch 46.2 (44496) - http://www.bohemiancoding.com/sketch -->
    <desc>Created with Sketch.</desc>
    <defs></defs>
    <g id="Page-1" stroke="none" stroke-width="1" fill="none" fill-rule="evenodd">
        <g id="9" transform="translate(-106.000000, -173.000000)" fill-rule="nonzero" fill="#FFFFFF">
            <g id="Group-7" transform="translate(91.000000, 151.000000)">
                <g id="Group-2">
                    <g id="ic_link_black_24px" transform="translate(15.340000, 22.420000)">
                        <path d="M2.61566667,6.88333333 C2.61566667,4.52923333 4.52923333,2.61566667 6.88333333,2.61566667 L12.39,2.61566667 L12.39,0 L6.88333333,0 C3.08373333,0 0,3.08373333 0,6.88333333 C0,10.6829333 3.08373333,13.7666667 6.88333333,13.7666667 L12.39,13.7666667 L12.39,11.151 L6.88333333,11.151 C4.52923333,11.151 2.61566667,9.23743333 2.61566667,6.88333333 Z M8.26,8.26 L19.2733333,8.26 L19.2733333,5.50666667 L8.26,5.50666667 L8.26,8.26 Z M20.65,0 L15.1433333,0 L15.1433333,2.61566667 L20.65,2.61566667 C23.0041,2.61566667 24.9176667,4.52923333 24.9176667,6.88333333 C24.9176667,9.23743333 23.0041,11.151 20.65,11.151 L15.1433333,11.151 L15.1433333,13.7666667 L20.65,13.7666667 C24.4496,13.7666667 27.5333333,10.6829333 27.5333333,6.88333333 C27.5333333,3.08373333 24.4496,0 20.65,0 Z" id="Shape"></path>
                    </g>
                </g>
            </g>
        </g>
    </g>
</svg>