<svg width="18px" height="18px" viewBox="0 0 18 18" version="1.1" xmlns="http://www.w3.org/2000/svg" xmlns:xlink="http://www.w3.org/1999/xlink">
    <!-- Generator: Sketch 46.2 (44496) - http://www.bohemiancoding.com/sketch -->
    <desc>Created with Sketch.</desc>
    <defs></defs>
    <g id="Page-1" stroke="none" stroke-width="1" fill="none" fill-rule="evenodd">
        <g id="3.1" transform="translate(-644.000000, -370.000000)" fill-rule="nonzero" fill="#FFFFFF">
            <g id="ic_settings_black_24px" transform="translate(644.000000, 370.000000)">
                <path d="M15.1916667,9.81666667 C15.225,9.55 15.25,9.28333333 15.25,9 C15.25,8.71666667 15.225,8.45 15.1916667,8.18333333 L16.95,6.80833333 C17.1083333,6.68333333 17.15,6.45833333 17.05,6.275 L15.3833333,3.39166667 C15.2833333,3.20833333 15.0583333,3.14166667 14.875,3.20833333 L12.8,4.04166667 C12.3666667,3.70833333 11.9,3.43333333 11.3916667,3.225 L11.075,1.01666667 C11.05,0.816666667 10.875,0.666666667 10.6666667,0.666666667 L7.33333333,0.666666667 C7.125,0.666666667 6.95,0.816666667 6.925,1.01666667 L6.60833333,3.225 C6.1,3.43333333 5.63333333,3.71666667 5.2,4.04166667 L3.125,3.20833333 C2.93333333,3.13333333 2.71666667,3.20833333 2.61666667,3.39166667 L0.95,6.275 C0.841666667,6.45833333 0.891666667,6.68333333 1.05,6.80833333 L2.80833333,8.18333333 C2.775,8.45 2.75,8.725 2.75,9 C2.75,9.275 2.775,9.55 2.80833333,9.81666667 L1.05,11.1916667 C0.891666667,11.3166667 0.85,11.5416667 0.95,11.725 L2.61666667,14.6083333 C2.71666667,14.7916667 2.94166667,14.8583333 3.125,14.7916667 L5.2,13.9583333 C5.63333333,14.2916667 6.1,14.5666667 6.60833333,14.775 L6.925,16.9833333 C6.95,17.1833333 7.125,17.3333333 7.33333333,17.3333333 L10.6666667,17.3333333 C10.875,17.3333333 11.05,17.1833333 11.075,16.9833333 L11.3916667,14.775 C11.9,14.5666667 12.3666667,14.2833333 12.8,13.9583333 L14.875,14.7916667 C15.0666667,14.8666667 15.2833333,14.7916667 15.3833333,14.6083333 L17.05,11.725 C17.15,11.5416667 17.1083333,11.3166667 16.95,11.1916667 L15.1916667,9.81666667 Z M9,11.9166667 C7.39166667,11.9166667 6.08333333,10.6083333 6.08333333,9 C6.08333333,7.39166667 7.39166667,6.08333333 9,6.08333333 C10.6083333,6.08333333 11.9166667,7.39166667 11.9166667,9 C11.9166667,10.6083333 10.6083333,11.9166667 9,11.9166667 Z" id="Shape"></path>
            </g>
        </g>
    </g>
</svg>