<?xml version="1.0" encoding="utf-8"?>
<!-- Generated by IcoMoon.io -->
<svg version="1.1" xmlns="http://www.w3.org/2000/svg" xmlns:xlink="http://www.w3.org/1999/xlink" width="752" height="80" viewBox="0 0 752 80">
<svg id="icon-error" width="32" height="32" viewBox="0 0 32 32" x="0" y="0">
<path fill="#fff" d="M16 2.667c-7.36 0-13.333 5.973-13.333 13.333s5.973 13.333 13.333 13.333 13.333-5.973 13.333-13.333-5.973-13.333-13.333-13.333zM17.333 22.667h-2.667v-2.667h2.667v2.667zM17.333 17.333h-2.667v-8h2.667v8z"></path>
</svg>
<svg id="icon-exit" width="32" height="32" viewBox="0 0 32 32" x="48" y="0">
<path fill="#fff" d="M6.667 21.333h4v4h2.667v-6.667h-6.667v2.667zM10.667 10.667h-4v2.667h6.667v-6.667h-2.667v4zM18.667 25.333h2.667v-4h4v-2.667h-6.667v6.667zM21.333 10.667v-4h-2.667v6.667h6.667v-2.667h-4z"></path>
</svg>
<svg id="icon-fb" width="32" height="32" viewBox="0 0 32 32" x="96" y="0">
<path fill="#fff" d="M18.277 31.829h-5.896v-15.733h-3.933v-5.422l3.933-0.002-0.006-3.194c0-4.424 1.199-7.115 6.41-7.115h4.338v5.423h-2.711c-2.029 0-2.127 0.758-2.127 2.172l-0.008 2.714h4.876l-0.575 5.422-4.298 0.002-0.004 15.733z"></path>
</svg>
<svg id="icon-full-screen" width="32" height="32" viewBox="0 0 32 32" x="144" y="0">
<path fill="#fff" d="M9.333 18.667h-2.667v6.667h6.667v-2.667h-4v-4zM6.667 13.333h2.667v-4h4v-2.667h-6.667v6.667zM22.667 22.667h-4v2.667h6.667v-6.667h-2.667v4zM18.667 6.667v2.667h4v4h2.667v-6.667h-6.667z"></path>
</svg>
<svg id="icon-gp" width="32" height="32" viewBox="0 0 32 32" x="192" y="0">
<path fill="#fff" d="M2.044 8.362c0 2.622 0.876 4.515 2.603 5.627 1.413 0.911 3.055 1.047 3.908 1.047 0.207 0 0.373-0.008 0.489-0.015 0 0-0.271 1.761 1.035 3.505l-0.059-0.001c-2.263 0.001-9.645 0.473-9.645 6.542 0 6.174 6.78 6.488 8.14 6.488 0.106 0 0.169-0.002 0.169-0.002 0.015 0 0.112 0.004 0.278 0.004 0.873 0 3.129-0.11 5.224-1.128 2.718-1.32 4.097-3.614 4.097-6.82 0-3.099-2.1-4.943-3.634-6.291-0.936-0.821-1.745-1.53-1.745-2.22 0-0.703 0.591-1.231 1.337-1.9 1.21-1.082 2.349-2.621 2.349-5.532 0-2.559-0.332-4.276-2.376-5.365 0.213-0.109 0.966-0.189 1.339-0.24 1.108-0.151 2.729-0.323 2.729-1.228v-0.175h-8.074c-0.081 0.002-8.164 0.302-8.164 7.705zM15.077 24.185c0.154 2.469-1.958 4.291-5.129 4.522-3.221 0.235-5.873-1.215-6.027-3.681-0.075-1.185 0.446-2.347 1.466-3.271 1.035-0.937 2.455-1.515 4-1.629 0.183-0.012 0.363-0.019 0.544-0.019 2.981 0 5 1.752 5.146 4.078zM12.969 6.673c0.792 2.786-0.404 5.698-2.31 6.236-0.219 0.061-0.446 0.093-0.675 0.093-1.746 0-3.476-1.766-4.117-4.199-0.358-1.367-0.329-2.562 0.081-3.711 0.404-1.13 1.129-1.894 2.041-2.15 0.219-0.062 0.447-0.094 0.676-0.094 2.108-0 3.464 0.874 4.303 3.825zM26.572 12.74v-5.267h-3.336v5.267h-5.267v3.336h5.267v5.267h3.336v-5.267h5.267v-3.336h-5.267z"></path>
</svg>
<svg id="icon-icons-spirt" width="32" height="32" viewBox="0 0 32 32" x="240" y="0">
<path fill="#fff" d="M3.2 0v32l25.143-16z"></path>
</svg>
<svg id="icon-link" width="32" height="32" viewBox="0 0 32 32" x="288" y="0">
<path fill="#fff" d="M3.378 15.775c0-2.69 2.187-4.877 4.877-4.877h6.293v-2.989h-6.293c-4.342 0-7.867 3.524-7.867 7.867s3.524 7.867 7.867 7.867h6.293v-2.989h-6.293c-2.69 0-4.877-2.187-4.877-4.877zM9.829 17.349h12.587v-3.147h-12.587v3.147zM23.989 7.909h-6.293v2.989h6.293c2.69 0 4.877 2.187 4.877 4.877s-2.187 4.877-4.877 4.877h-6.293v2.989h6.293c4.342 0 7.867-3.524 7.867-7.867s-3.524-7.867-7.867-7.867z"></path>
</svg>
<svg id="icon-loader" width="32" height="32" viewBox="0 0 32 32" x="336" y="0">
<path fill="#f9f9f9" d="M27.36 26.912c-6.048 6.080-16.64 5.504-22.56-0.416-6.080-6.080-6.4-15.808-0.896-22.24 0.352-0.416 0.672-0.832 1.12-1.088 1.152-0.736 2.72-0.576 3.744 0.416 0.96 0.992 1.12 2.432 0.512 3.584-0.16 0.288-0.288 0.48-0.512 0.704-4.48 4.832-4.64 12.128-0.256 16.512 4.896 4.896 13.024 3.872 17.344-1.088 3.392-3.904 4.544-9.504 2.464-14.432-2.656-6.336-9.76-9.312-16.32-7.104v-0.032c7.552-2.624 15.744 0.768 18.816 8.064 2.272 5.344 1.184 11.36-2.304 15.776-0.352 0.48-0.736 0.928-1.152 1.344z"></path>
</svg>
<svg id="icon-menu" width="32" height="32" viewBox="0 0 32 32" x="384" y="0">
<path fill="#fff" d="M16 10.667c1.467 0 2.667-1.2 2.667-2.667s-1.2-2.667-2.667-2.667-2.667 1.2-2.667 2.667 1.2 2.667 2.667 2.667zM16 13.333c-1.467 0-2.667 1.2-2.667 2.667s1.2 2.667 2.667 2.667 2.667-1.2 2.667-2.667-1.2-2.667-2.667-2.667zM16 21.333c-1.467 0-2.667 1.2-2.667 2.667s1.2 2.667 2.667 2.667 2.667-1.2 2.667-2.667-1.2-2.667-2.667-2.667z"></path>
</svg>
<svg id="icon-mute" width="28" height="28" viewBox="0 0 32 32" x="432" y="0">
<path fill="#fff" d="M22 16c0-2.36-1.36-4.387-3.333-5.373v2.947l3.267 3.267c0.040-0.267 0.067-0.547 0.067-0.84zM25.333 16c0 1.253-0.267 2.427-0.72 3.52l2.013 2.013c0.88-1.653 1.373-3.533 1.373-5.533 0-5.707-3.987-10.48-9.333-11.693v2.747c3.853 1.147 6.667 4.72 6.667 8.947zM5.693 4l-1.693 1.693 6.307 6.307h-6.307v8h5.333l6.667 6.667v-8.973l5.667 5.667c-0.893 0.693-1.893 1.24-3 1.573v2.747c1.84-0.413 3.507-1.267 4.92-2.413l2.72 2.733 1.693-1.693-22.307-22.307zM16 5.333l-2.787 2.787 2.787 2.787v-5.573z"></path>
</svg>
<svg id="icon-next" width="26" height="26" viewBox="0 0 32 32" x="480" y="0">
<path fill="#fff" d="M8 24l11.333-8-11.333-8v16zM21.333 8v16h2.667v-16h-2.667z"></path>
</svg>
<svg id="icon-pause" width="24" height="24" viewBox="0 0 32 32" x="528" y="0">
<path fill="#fff" d="M8 25.333h5.333v-18.667h-5.333v18.667zM18.667 6.667v18.667h5.333v-18.667h-5.333z"></path>
</svg>
<svg id="icon-play" width="26" height="26" viewBox="0 0 32 32" x="576" y="0">
<path fill="#fff" d="M10.667 6.667v18.667l14.667-9.333z"></path>
</svg>
<svg id="icon-replay" width="26" height="26" viewBox="0 0 32 32" x="624" y="0">
<path fill="#9b9b9b" d="M15.806 6.379v-6.379l-7.974 7.974 7.974 7.974v-6.379c5.279 0 9.569 4.29 9.569 9.569s-4.29 9.569-9.569 9.569c-5.279 0-9.569-4.29-9.569-9.569h-3.19c0 7.049 5.71 12.759 12.759 12.759s12.759-5.71 12.759-12.759c0-7.049-5.71-12.759-12.759-12.759z"></path>
</svg>
<svg id="icon-settings" width="17" height="17" viewBox="0 0 32 32" x="672" y="0">
<path fill="#fff" d="M27.007 17.452c0.059-0.474 0.104-0.948 0.104-1.452s-0.044-0.978-0.104-1.452l3.126-2.444c0.281-0.222 0.356-0.622 0.178-0.948l-2.963-5.126c-0.178-0.326-0.578-0.444-0.904-0.326l-3.689 1.481c-0.77-0.593-1.6-1.081-2.504-1.452l-0.563-3.926c-0.044-0.356-0.356-0.622-0.726-0.622h-5.926c-0.37 0-0.681 0.267-0.726 0.622l-0.563 3.926c-0.904 0.37-1.733 0.874-2.504 1.452l-3.689-1.481c-0.341-0.133-0.726 0-0.904 0.326l-2.963 5.126c-0.193 0.326-0.104 0.726 0.178 0.948l3.126 2.444c-0.059 0.474-0.104 0.963-0.104 1.452s0.044 0.978 0.104 1.452l-3.126 2.444c-0.281 0.222-0.356 0.622-0.178 0.948l2.963 5.126c0.178 0.326 0.578 0.444 0.904 0.326l3.689-1.481c0.77 0.593 1.6 1.081 2.504 1.452l0.563 3.926c0.044 0.356 0.356 0.622 0.726 0.622h5.926c0.37 0 0.681-0.267 0.726-0.622l0.563-3.926c0.904-0.37 1.733-0.874 2.504-1.452l3.689 1.481c0.341 0.133 0.726 0 0.904-0.326l2.963-5.126c0.178-0.326 0.104-0.726-0.178-0.948l-3.126-2.444zM16 21.185c-2.859 0-5.185-2.326-5.185-5.185s2.326-5.185 5.185-5.185c2.859 0 5.185 2.326 5.185 5.185s-2.326 5.185-5.185 5.185z"></path>
</svg>
<svg id="icon-share" width="23" height="23" viewBox="0 0 32 32" x="720" y="0">
<path fill="#fff" d="M24 21.44c-1.013 0-1.92 0.4-2.613 1.027l-9.507-5.533c0.067-0.307 0.12-0.613 0.12-0.933s-0.053-0.627-0.12-0.933l9.4-5.48c0.72 0.667 1.667 1.080 2.72 1.080 2.213 0 4-1.787 4-4s-1.787-4-4-4-4 1.787-4 4c0 0.32 0.053 0.627 0.12 0.933l-9.4 5.48c-0.72-0.667-1.667-1.080-2.72-1.080-2.213 0-4 1.787-4 4s1.787 4 4 4c1.053 0 2-0.413 2.72-1.080l9.493 5.547c-0.067 0.28-0.107 0.573-0.107 0.867 0 2.147 1.747 3.893 3.893 3.893s3.893-1.747 3.893-3.893-1.747-3.893-3.893-3.893z"></path>
</svg>
<svg id="icon-stop" width="22" height="22" viewBox="0 0 32 32" x="0" y="48">
<path fill="#fff" d="M8 8h16v16h-16z"></path>
</svg>
<svg id="icon-tick" width="32" height="32" viewBox="0 0 32 32" x="48" y="48">
<path fill="#fff" d="M10.667 23.467l-7.467-7.467-2.489 2.489 9.956 9.956 21.333-21.333-2.489-2.489z"></path>
</svg>
<svg id="icon-tw" width="32" height="32" viewBox="0 0 32 32" x="96" y="48">
<path fill="#fff" d="M31.269 6.381c-1.151 0.51-2.388 0.856-3.687 1.011 1.325-0.794 2.343-2.052 2.822-3.551-1.24 0.736-2.614 1.27-4.076 1.558-1.171-1.248-2.839-2.027-4.685-2.027-3.545 0-6.419 2.874-6.419 6.419 0 0.503 0.057 0.993 0.166 1.463-5.335-0.268-10.065-2.823-13.231-6.707-0.553 0.948-0.869 2.051-0.869 3.227 0 2.227 1.133 4.192 2.856 5.343-1.052-0.033-2.042-0.322-2.907-0.803-0.001 0.027-0.001 0.054-0.001 0.081 0 3.11 2.213 5.704 5.149 6.294-0.539 0.147-1.106 0.225-1.691 0.225-0.414 0-0.816-0.040-1.208-0.115 0.817 2.55 3.187 4.406 5.996 4.458-2.197 1.722-4.965 2.748-7.972 2.748-0.518 0-1.029-0.030-1.531-0.090 2.841 1.821 6.215 2.884 9.84 2.884 11.807 0 18.264-9.781 18.264-18.264 0-0.278-0.006-0.555-0.019-0.83 1.254-0.905 2.343-2.035 3.203-3.323z"></path>
</svg>
<svg id="icon-upA" width="32" height="32" viewBox="0 0 32 32" x="144" y="48">
<path fill="#fff" d="M16 10.667l-8 8 1.88 1.88 6.12-6.107 6.12 6.107 1.88-1.88z"></path>
</svg>
<svg id="icon-volume" width="28" height="28" viewBox="0 0 32 32" x="192" y="48">
<path fill="#fff" d="M4 12v8h5.333l6.667 6.667v-21.333l-6.667 6.667h-5.333zM22 16c0-2.36-1.36-4.387-3.333-5.373v10.733c1.973-0.973 3.333-3 3.333-5.36zM18.667 4.307v2.747c3.853 1.147 6.667 4.72 6.667 8.947s-2.813 7.8-6.667 8.947v2.747c5.347-1.213 9.333-5.987 9.333-11.693s-3.987-10.48-9.333-11.693z"></path>
</svg>
<svg id="icon-volume1" width="28" height="28" viewBox="0 0 32 32" x="240" y="48">
<path fill="#fff" d="M8.889 12.444v7.111h5.333l7.111 7.111v-21.333l-7.111 7.111h-5.333z"></path>
</svg>
<svg id="icon-volume2" width="28" height="28" viewBox="0 0 32 32" x="288" y="48">
<path fill="#fff" d="M5.333 9.333v5.333h4l5.333 5.333v-16l-5.333 5.333h-4zM17.333 8v8c1.56-0.653 2.667-2.2 2.667-4s-1.107-3.347-2.667-4z"></path>
</svg>
<svg id="icon-wh" width="59" height="59" viewBox="0 0 59 59" x="336" y="48">
<path fill="#67b215" d="M32 16c0 8.837-7.163 16-16 16s-16-7.163-16-16c0-8.837 7.163-16 16-16s16 7.163 16 16z"></path>
<path fill="#fff" d="M24.885 15.447c0 4.608-3.764 8.344-8.409 8.344-1.474 0-2.86-0.377-4.065-1.038l-4.656 1.479 1.518-4.477c-0.766-1.257-1.207-2.732-1.207-4.308 0-4.608 3.765-8.344 8.409-8.344s8.409 3.736 8.409 8.344zM16.476 8.432c-3.899 0-7.070 3.147-7.070 7.015 0 1.535 0.5 2.957 1.347 4.113l-0.883 2.605 2.717-0.863c1.116 0.733 2.453 1.16 3.89 1.16 3.898 0 7.070-3.147 7.070-7.015s-3.172-7.016-7.070-7.016zM20.723 17.369c-0.052-0.085-0.189-0.136-0.395-0.239s-1.22-0.597-1.408-0.665c-0.189-0.068-0.327-0.102-0.464 0.102s-0.532 0.665-0.653 0.802c-0.12 0.137-0.24 0.154-0.447 0.052s-0.87-0.318-1.657-1.015c-0.613-0.542-1.026-1.211-1.147-1.416s-0.013-0.315 0.090-0.417c0.093-0.092 0.206-0.239 0.309-0.358s0.138-0.205 0.206-0.341c0.069-0.136 0.035-0.256-0.017-0.358s-0.464-1.109-0.636-1.518c-0.172-0.409-0.343-0.341-0.464-0.341s-0.258-0.017-0.395-0.017-0.361 0.051-0.55 0.256c-0.189 0.205-0.721 0.7-0.721 1.706s0.738 1.979 0.842 2.115c0.103 0.136 1.426 2.269 3.521 3.088s2.096 0.545 2.474 0.511c0.378-0.034 1.219-0.495 1.392-0.972 0.171-0.478 0.171-0.887 0.12-0.973z"></path>
</svg>
<svg id="icon-arrow" width="32" height="32" viewBox="0 0 32 32" x="384" y="48">
<path fill="#fff" d="M15.346 6.445l-15.346 16.061 1.595 1.681 13.751-14.391 13.751 14.391 1.595-1.681z"></path>
</svg>
<svg id="icon-cc" width="32" height="32" viewBox="0 0 32 32" x="432" y="48">
<path fill="#fff" d="M25.333 5.333h-18.667c-1.48 0-2.667 1.2-2.667 2.667v16c0 1.467 1.187 2.667 2.667 2.667h18.667c1.467 0 2.667-1.2 2.667-2.667v-16c0-1.467-1.2-2.667-2.667-2.667zM14.667 14.667h-2v-0.667h-2.667v4h2.667v-0.667h2v1.333c0 0.733-0.6 1.333-1.333 1.333h-4c-0.733 0-1.333-0.6-1.333-1.333v-5.333c0-0.733 0.6-1.333 1.333-1.333h4c0.733 0 1.333 0.6 1.333 1.333v1.333zM24 14.667h-2v-0.667h-2.667v4h2.667v-0.667h2v1.333c0 0.733-0.6 1.333-1.333 1.333h-4c-0.733 0-1.333-0.6-1.333-1.333v-5.333c0-0.733 0.6-1.333 1.333-1.333h4c0.733 0 1.333 0.6 1.333 1.333v1.333z"></path>
</svg>
<svg id="icon-close" width="18" height="18" viewBox="0 0 32 32" x="480" y="48">
<path fill="#fff" d="M32 3.223l-3.223-3.223-12.777 12.777-12.777-12.777-3.223 3.223 12.777 12.777-12.777 12.777 3.223 3.223 12.777-12.777 12.777 12.777 3.223-3.223-12.777-12.777z"></path>
</svg>
<svg id="icon-dim" width="32" height="32" viewBox="0 0 32 32" x="528" y="48">
<path fill="#9b9b9b" d="M8.671 6.734l-2.517-2.49-1.972 1.962 2.503 2.49 1.986-1.962zM4.811 14.609h-4.196v2.783h4.196v-2.783zM17.399 0.765h-2.797v4.104h2.797v-4.104zM27.818 6.205l-1.972-1.962-2.503 2.49 1.972 1.962 2.503-2.49zM23.329 25.266l2.503 2.504 1.972-1.962-2.517-2.49-1.958 1.948zM27.189 14.609v2.783h4.196v-2.783h-4.196zM16 7.652c-4.629 0-8.392 3.743-8.392 8.348s3.762 8.348 8.392 8.348c4.629 0 8.392-3.743 8.392-8.348s-3.762-8.348-8.392-8.348zM14.601 31.235h2.797v-4.104h-2.797v4.104zM4.182 25.795l1.972 1.962 2.503-2.504-1.972-1.962-2.503 2.504z"></path>
</svg>
<svg id="icon-dimA" width="32" height="32" viewBox="0 0 32 32" x="576" y="48">
<path fill="#ffbf2a" d="M8.671 6.734l-2.517-2.49-1.972 1.962 2.503 2.49 1.986-1.962zM4.811 14.609h-4.196v2.783h4.196v-2.783zM17.399 0.765h-2.797v4.104h2.797v-4.104zM27.818 6.205l-1.972-1.962-2.503 2.49 1.972 1.962 2.503-2.49zM23.329 25.266l2.503 2.504 1.972-1.962-2.517-2.49-1.958 1.948zM27.189 14.609v2.783h4.196v-2.783h-4.196zM16 7.652c-4.629 0-8.392 3.743-8.392 8.348s3.762 8.348 8.392 8.348c4.629 0 8.392-3.743 8.392-8.348s-3.762-8.348-8.392-8.348zM14.601 31.235h2.797v-4.104h-2.797v4.104zM4.182 25.795l1.972 1.962 2.503-2.504-1.972-1.962-2.503 2.504z"></path>
</svg>
<svg id="icon-spin" width="32" height="32" viewBox="0 0 32 32" x="624" y="48">
<path d="M27.36 26.912c-6.048 6.080-16.64 5.504-22.56-0.416-6.080-6.080-6.4-15.808-0.896-22.24 0.352-0.416 0.672-0.832 1.12-1.088 1.152-0.736 2.72-0.576 3.744 0.416 0.96 0.992 1.12 2.432 0.512 3.584-0.16 0.288-0.288 0.48-0.512 0.704-4.48 4.832-4.64 12.128-0.256 16.512 4.896 4.896 13.024 3.872 17.344-1.088 3.392-3.904 4.544-9.504 2.464-14.432-2.656-6.336-9.76-9.312-16.32-7.104v-0.032c7.552-2.624 15.744 0.768 18.816 8.064 2.272 5.344 1.184 11.36-2.304 15.776-0.352 0.48-0.736 0.928-1.152 1.344z"></path>
</svg>
<svg id="icon-play-big" width="32" height="32" viewBox="0 0 32 32" x="672" y="48">
<path fill="#fff" d="M10.667 6.667v18.667l14.667-9.333z"></path>
</svg>
<svg id="icon-pause-big" width="32" height="32" viewBox="0 0 32 32" x="720" y="48">
<path fill="#fff" d="M8 25.333h5.333v-18.667h-5.333v18.667zM18.667 6.667v18.667h5.333v-18.667h-5.333z"></path>
</svg>
</svg>