<svg width="34px" height="28px" viewBox="0 0 34 28" version="1.1" xmlns="http://www.w3.org/2000/svg" xmlns:xlink="http://www.w3.org/1999/xlink">
    <!-- Generator: Sketch 46.2 (44496) - http://www.bohemiancoding.com/sketch -->
    <desc>Created with Sketch.</desc>
    <defs></defs>
    <g id="Page-1" stroke="none" stroke-width="1" fill="none" fill-rule="evenodd">
        <g id="9" transform="translate(-268.000000, -167.000000)" fill-rule="nonzero" fill="#FFFFFF">
            <g id="Group-7" transform="translate(91.000000, 151.000000)">
                <g id="Group-4" transform="translate(164.000000, 0.000000)">
                    <g id="twitter" transform="translate(12.980000, 16.520000)">
                        <path d="M33.2433834,3.26011134 C32.0201356,3.80252177 30.7058584,4.16917148 29.3262633,4.33402426 C30.7342969,3.48995727 31.8157415,2.15340967 32.3250386,0.560720191 C31.0070604,1.34239115 29.5476037,1.9099288 27.994001,2.21574077 C26.7499761,0.890230957 24.9773705,0.0620713876 23.0156939,0.0620713876 C19.2491424,0.0620713876 16.1955028,3.1155811 16.1955028,6.8820677 C16.1955028,7.41662182 16.2558211,7.93715144 16.3721076,8.43638459 C10.7038732,8.15186909 5.67836325,5.43670038 2.31456153,1.3103166 C1.72748048,2.31761316 1.39108732,3.48917813 1.39108732,4.73911148 C1.39108732,7.10535589 2.59511641,9.19292833 4.42518349,10.4159814 C3.30718431,10.3805306 2.25554177,10.0737447 1.33609311,9.56288938 C1.33544383,9.59132794 1.33544383,9.61989636 1.33544383,9.64865957 C1.33544383,12.9531169 3.6864301,15.70958 6.80636139,16.3362672 C6.2341489,16.49203 5.63155,16.5756576 5.00953756,16.5756576 C4.57003837,16.5756576 4.14281062,16.532805 3.72629603,16.4530731 C4.5942566,19.1625281 7.11295249,21.1346582 10.0974435,21.1895225 C7.76327364,23.0189403 4.82247933,24.1091502 1.62703651,24.1091502 C1.07651005,24.1091502 0.53364512,24.0769458 6.49282297e-05,24.0136408 C3.01831861,25.9489566 6.60333081,27.0780585 10.4548734,27.0780585 C22.9997216,27.0780585 29.8598435,16.6855162 29.8598435,7.67282861 C29.8598435,7.37714545 29.853091,7.08302057 29.8400404,6.79045397 C31.1727573,5.82893182 32.3290641,4.62775957 33.2433834,3.26011134 Z" id="Shape"></path>
                    </g>
                </g>
            </g>
        </g>
    </g>
</svg>