<svg width="59px" height="59px" viewBox="0 0 59 59" version="1.1" xmlns="http://www.w3.org/2000/svg" xmlns:xlink="http://www.w3.org/1999/xlink">
    <!-- Generator: Sketch 46.2 (44496) - http://www.bohemiancoding.com/sketch -->
    <desc>Created with Sketch.</desc>
    <defs></defs>
    <g id="Page-1" stroke="none" stroke-width="1" fill="none" fill-rule="evenodd">
        <g id="9" transform="translate(-419.000000, -151.000000)">
            <g id="Group-7" transform="translate(91.000000, 151.000000)">
                <g id="Group-6" transform="translate(328.000000, 0.000000)">
                    <circle id="Oval-2" fill="#67B215" cx="29.5" cy="29.5" r="29.5"></circle>
                    <g id="whatsapp-logo" transform="translate(14.300000, 16.900000)" fill-rule="nonzero" fill="#FFFFFF">
                        <path d="M31.5819057,11.5802481 C31.5819057,20.0768334 24.6412555,26.9644961 16.0779973,26.9644961 C13.359497,26.9644961 10.8055736,26.2696942 8.58361105,25.0502817 L0,27.7779057 L2.79850775,19.5237992 C1.38679657,17.2056873 0.573737953,14.4868361 0.573737953,11.5802481 C0.573737953,3.08366272 7.51508991,-3.804 16.0779973,-3.804 C24.6419574,-3.804 31.5819057,3.08366272 31.5819057,11.5802481 Z M16.0779973,-1.35394594 C8.88995554,-1.35394594 3.04309207,4.44835195 3.04309207,11.5802481 C3.04309207,14.4103377 3.96563462,17.031285 5.52613167,19.1634145 L3.89755807,23.9670224 L8.90679922,22.3749434 C10.9648867,23.7262981 13.4303808,24.5144421 16.0783482,24.5144421 C23.2653372,24.5144421 29.1132534,18.712846 29.1132534,11.5809499 C29.1132534,4.44905377 23.2656881,-1.35394594 16.0779973,-1.35394594 Z M23.9071517,15.123387 C23.8113532,14.9665302 23.5583471,14.8717845 23.1786624,14.6833458 C22.7982759,14.4949071 20.9293289,13.58219 20.5819279,13.4569151 C20.2334742,13.3312893 19.9794153,13.2681255 19.7264092,13.6453538 C19.473403,14.022933 18.7449137,14.8717845 18.5227877,15.123387 C18.3010125,15.3756913 18.0795883,15.4072732 17.6992018,15.2184836 C17.3195171,15.0300449 16.0951919,14.6314111 14.6434769,13.3470802 C13.5138974,12.3476884 12.751019,11.1138886 12.5292438,10.7359585 C12.3078195,10.3587301 12.5060837,10.1548514 12.6959261,9.96711451 C12.8671702,9.79797586 13.0763126,9.52672238 13.2661549,9.30670177 C13.4566991,9.08633025 13.5198629,8.92947345 13.6458396,8.67752003 C13.77322,8.42591751 13.7097053,8.20589691 13.6142577,8.01675638 C13.519512,7.82831768 12.758739,5.97270526 12.4422181,5.21754681 C12.1256972,4.46309017 11.8095273,4.58871598 11.5874012,4.58871598 C11.3659769,4.58871598 11.112269,4.55713407 10.8589119,4.55713407 C10.6055548,4.55713407 10.1935864,4.65152888 9.84513273,5.02875719 C9.49702994,5.40633642 8.5155345,6.31870259 8.5155345,8.17396409 C8.5155345,10.0295765 9.87671463,11.822376 10.0672588,12.0736276 C10.2571011,12.3248792 12.6955752,16.2564756 16.559095,17.7664416 C20.4229657,19.2757058 20.4229657,18.7721498 21.119873,18.708986 C21.8160786,18.6461731 23.3678029,17.7969707 23.6857274,16.9168883 C24.0015465,16.0354022 24.0015465,15.2805947 23.9071517,15.123387 Z" id="WhatsApp"></path>
                    </g>
                </g>
            </g>
        </g>
    </g>
</svg>